<mxfile host="app.diagrams.net" modified="2024-03-13T03:07:46.133Z" agent="Mozilla/5.0 (Macintosh; Intel Mac OS X 10_15_7) AppleWebKit/605.1.15 (KHTML, like Gecko) Version/17.3.1 Safari/605.1.15" etag="VHxaAcsbS_ifl2t1x9e_" version="24.0.4" type="github">
  <diagram name="第 1 页" id="DkaZGUdUfPy2FzlaKwNX">
    <mxGraphModel dx="1434" dy="802" grid="1" gridSize="10" guides="1" tooltips="1" connect="1" arrows="1" fold="1" page="1" pageScale="1" pageWidth="827" pageHeight="1169" math="0" shadow="0">
      <root>
        <mxCell id="0" />
        <mxCell id="1" parent="0" />
        <mxCell id="2cb4IjYmStpNNC32FOYD-5" value="" style="group" vertex="1" connectable="0" parent="1">
          <mxGeometry x="64" y="320" width="426" height="300" as="geometry" />
        </mxCell>
        <mxCell id="2cb4IjYmStpNNC32FOYD-4" value="" style="ellipse;shape=cloud;whiteSpace=wrap;html=1;" vertex="1" parent="2cb4IjYmStpNNC32FOYD-5">
          <mxGeometry width="426" height="300" as="geometry" />
        </mxCell>
        <mxCell id="2cb4IjYmStpNNC32FOYD-1" value="&lt;font style=&quot;font-size: 30px;&quot; face=&quot;Times New Roman&quot;&gt;IMM&lt;/font&gt;" style="rounded=1;whiteSpace=wrap;html=1;fillColor=#ffe6cc;strokeColor=#d79b00;" vertex="1" parent="2cb4IjYmStpNNC32FOYD-5">
          <mxGeometry x="76" y="100" width="120" height="60" as="geometry" />
        </mxCell>
        <mxCell id="2cb4IjYmStpNNC32FOYD-2" value="&lt;font style=&quot;font-size: 30px;&quot; face=&quot;Times New Roman&quot;&gt;OPIM-C&lt;/font&gt;" style="rounded=1;whiteSpace=wrap;html=1;fillColor=#ffe6cc;strokeColor=#d79b00;" vertex="1" parent="2cb4IjYmStpNNC32FOYD-5">
          <mxGeometry x="155.63" y="190" width="120" height="60" as="geometry" />
        </mxCell>
        <mxCell id="2cb4IjYmStpNNC32FOYD-3" value="&lt;font style=&quot;font-size: 30px;&quot; face=&quot;Times New Roman&quot;&gt;D-SSA&lt;/font&gt;" style="rounded=1;whiteSpace=wrap;html=1;fillColor=#ffe6cc;strokeColor=#d79b00;" vertex="1" parent="2cb4IjYmStpNNC32FOYD-5">
          <mxGeometry x="246" y="80" width="120" height="60" as="geometry" />
        </mxCell>
      </root>
    </mxGraphModel>
  </diagram>
</mxfile>
